<svg height="512" viewBox="0 0 58 58" width="512" xmlns="http://www.w3.org/2000/svg"><g id="Page-1" fill="none" fill-rule="evenodd"><g id="002---Algebra-Test" fill-rule="nonzero"><path id="Shape" d="m38 11v7h-7c-1.6568542 0-3 1.3431458-3 3v34c0 1.6568542 1.3431458 3 3 3h-29c-1.10320187-.0032948-1.9967052-.8967981-2-2v-54c.0032948-1.10320187.89679813-1.9967052 2-2h25v9c.0032948 1.1032019.8967981 1.9967052 2 2z" fill="#f8e8ab"/><path id="Shape" d="m38 11h-9c-1.1032019-.0032948-1.9967052-.8967981-2-2v-9z" fill="#f1d24b"/><rect id="Rectangle-path" fill="#415c6d" height="40" rx="3" width="30" x="28" y="18"/><rect id="Rectangle-path" fill="#2f9f84" height="14" rx="1" width="22" x="32" y="22"/><path id="Shape" d="m44.15 22-8 14h-2.3l8-14z" fill="#ebeff0"/><path id="Shape" d="m51.16 22-8.01 14h-2.31l8.01-14z" fill="#ebeff0"/><g fill="#36495f"><rect id="Rectangle-path" height="4" rx="1" width="4" x="33" y="41"/><rect id="Rectangle-path" height="4" rx="1" width="4" x="41" y="41"/><rect id="Rectangle-path" height="4" rx="1" width="4" x="49" y="41"/><rect id="Rectangle-path" height="4" rx="1" width="4" x="33" y="49"/><rect id="Rectangle-path" height="4" rx="1" width="4" x="41" y="49"/></g><rect id="Rectangle-path" fill="#ed9a00" height="4" rx="1" width="4" x="49" y="49"/><path id="Shape" d="m9.707 18.293c-.39049985-.3903819-1.02350015-.3903819-1.414 0l-1.293 1.293-1.293-1.293c-.39237889-.3789722-1.01608478-.3735524-1.40181858.0121814-.38573379.3857338-.39115363 1.0094397-.01218142 1.4018186l1.293 1.293-1.293 1.293c-.25995658.2510745-.3642126.6228779-.27269716.9725073.09151544.3496295.3645604.6226744.71418984.7141899.34962943.0915154.72143285-.0127406.97250732-.2726972l1.293-1.293 1.293 1.293c.39237889.3789722 1.01608478.3735524 1.40181858-.0121814.38573382-.3857338.39115362-1.0094397.01218142-1.4018186l-1.293-1.293 1.293-1.293c.3903819-.3904999.3903819-1.0235001 0-1.414z" fill="#ed9a00"/><path id="Shape" d="m17 22h-4c-.5522847 0-1 .4477153-1 1s.4477153 1 1 1h4c.5522847 0 1-.4477153 1-1s-.4477153-1-1-1z" fill="#4397d5"/><path id="Shape" d="m17 18h-4c-.5522847 0-1 .4477153-1 1s.4477153 1 1 1h4c.5522847 0 1-.4477153 1-1s-.4477153-1-1-1z" fill="#4397d5"/><path id="Shape" d="m19.766 17.865c.2295263.1330862.5025329.169503.7589185.1012336.2563855-.0682695.4751314-.2356285.6080815-.4652336.242209-.4206389.7515083-.6066019 1.2077742-.4410007.4562658.1656012.7277243.6349393.6437482 1.1130087-.0839761.4780693-.4991336.8267988-.9845224.826992-.5522847 0-1 .4477153-1 1v1c0 .5522847.4477153 1 1 1s1-.4477153 1-1v-.171c1.2518652-.4440134 2.0627237-1.6583784 1.9930333-2.9848239-.0696905-1.3264455-1.003337-2.4491555-2.2948378-2.7595424-1.2915009-.310387-2.6333599.2654498-3.2981955 1.4153663-.2754489.4780572-.1116685 1.0888775.366 1.365z" fill="#f85360"/><circle id="Oval" cx="22" cy="25" fill="#f85360" r="1"/><path id="Shape" d="m8.293 31.293-1.293 1.293-1.293-1.293c-.39237889-.3789722-1.01608478-.3735524-1.40181858.0121814-.38573379.3857338-.39115363 1.0094397-.01218142 1.4018186l1.293 1.293-1.293 1.293c-.25995658.2510745-.3642126.6228779-.27269716.9725073.09151544.3496295.3645604.6226744.71418984.7141899.34962943.0915154.72143285-.0127406.97250732-.2726972l4-4c.3789722-.3923789.3735524-1.0160848-.01218142-1.4018186-.3857338-.3857338-1.00943969-.3911536-1.40181858-.0121814z" fill="#ed9a00"/><path id="Shape" d="m17 35h-4c-.5522847 0-1 .4477153-1 1s.4477153 1 1 1h4c.5522847 0 1-.4477153 1-1s-.4477153-1-1-1z" fill="#4397d5"/><path id="Shape" d="m17 31h-4c-.5522847 0-1 .4477153-1 1s.4477153 1 1 1h4c.5522847 0 1-.4477153 1-1s-.4477153-1-1-1z" fill="#4397d5"/><path id="Shape" d="m22 28c-1.071823.0017784-2.0619541.5730079-2.6 1.5-.1917488.3099415-.19969.6996593-.0207263 1.0171547s.5164881.5124835.880931.5089145c.3644428-.003569.6980838-.2051298.8707953-.5260692.2424614-.4199504.7512754-.6054271 1.2071135-.440026.455838.1654012.7273175.6340079.6440595 1.1117253-.083258.4777175-.4972567.826857-.982173.8283007-.5522847 0-1 .4477153-1 1v1c0 .5522847.4477153 1 1 1s1-.4477153 1-1v-.171c1.3784217-.4864561 2.2055867-1.8955644 1.958427-3.3362579-.2471596-1.4406936-1.4966865-2.4935329-2.958427-2.4927421z" fill="#f85360"/><circle id="Oval" cx="22" cy="38" fill="#f85360" r="1"/><path id="Shape" d="m9 48h-1.586l2.293-2.293c.28590792-.2859943.3714219-.7160366.21667798-1.0896546-.15474393-.3736179-.51928208-.6172591-.92367798-.6173454h-4c-.55228475 0-1 .4477153-1 1s.44771525 1 1 1h1.586l-2.293 2.293c-.28590792.2859943-.37142191.7160366-.21667798 1.0896546.15474393.3736179.51928208.6172591.92367798.6173454h4c.55228475 0 1-.4477153 1-1s-.44771525-1-1-1z" fill="#ed9a00"/><path id="Shape" d="m17 48h-4c-.5522847 0-1 .4477153-1 1s.4477153 1 1 1h4c.5522847 0 1-.4477153 1-1s-.4477153-1-1-1z" fill="#4397d5"/><path id="Shape" d="m17 44h-4c-.5522847 0-1 .4477153-1 1s.4477153 1 1 1h4c.5522847 0 1-.4477153 1-1s-.4477153-1-1-1z" fill="#4397d5"/><path id="Shape" d="m22 41c-1.071823.0017784-2.0619541.5730079-2.6 1.5-.2561528.4759933-.0876904 1.0693836.3803603 1.3397768s1.0662521.1199053 1.3506397-.3397768c.2424614-.4199504.7512754-.6054271 1.2071135-.440026.455838.1654012.7273175.6340079.6440595 1.1117253-.083258.4777175-.4972567.826857-.982173.8283007-.5522847 0-1 .4477153-1 1v1c0 .5522847.4477153 1 1 1s1-.4477153 1-1v-.171c1.3784217-.4864561 2.2055867-1.8955644 1.958427-3.3362579-.2471596-1.4406936-1.4966865-2.4935329-2.958427-2.4927421z" fill="#f85360"/><circle id="Oval" cx="22" cy="51" fill="#f85360" r="1"/></g></g></svg>