<svg height="512pt" viewBox="0 0 512 512" width="512pt" xmlns="http://www.w3.org/2000/svg"><path d="m30 409.691406v-293.878906c0-10.265625 8.351562-18.617188 18.613281-18.617188v-30c-26.804687 0-48.613281 21.8125-48.613281 48.617188v293.878906c0 27.582032 22.441406 50.023438 50.023438 50.023438h58.128906v-30h-58.128906c-11.042969 0-20.023438-8.984375-20.023438-20.023438zm0 0" fill="#c5feff"/><path d="m463.386719 67.195312h-.71875v30h.71875c10.265625 0 18.613281 8.351563 18.613281 18.617188v291.367188c0 11.042968-8.980469 20.023437-20.023438 20.023437h-58.128906v30h58.128906c27.582032 0 50.023438-22.441406 50.023438-50.023437v-291.367188c0-26.804688-21.808594-48.617188-48.613281-48.617188zm0 0" fill="#36f1ff"/><path d="m301 31.125c0-8.285156-6.714844-15-15-15s-15 6.714844-15 15v105.769531c0 8.28125 6.714844 15 15 15s15-6.71875 15-15v-39.699219h27.273438v-30h-27.273438zm0 0" fill="#36f1ff"/><path d="m226 36.125c-8.285156 0-15 6.714844-15 15v16.070312h-27.992188v30h27.992188v19.695313c0 8.285156 6.714844 15 15 15s15-6.714844 15-15v-65.765625c0-8.285156-6.714844-15-15-15zm0 0" fill="#c5feff"/><path d="m115.8125 0c-45.324219 0-82.199219 36.871094-82.199219 82.195312 0 45.324219 36.875 82.199219 82.199219 82.199219s82.195312-36.875 82.195312-82.199219c0-45.324218-36.871093-82.195312-82.195312-82.195312zm0 0" fill="#82ff64"/><path d="m395.472656 0c-45.324218 0-82.199218 36.871094-82.199218 82.195312 0 45.324219 36.875 82.199219 82.199218 82.199219 45.324219 0 82.195313-36.875 82.195313-82.199219 0-45.324218-36.871094-82.195312-82.195313-82.195312zm0 0" fill="#ff7c10"/><path d="m140.203125 67.195312h-9.390625v-9.371093c0-8.285157-6.71875-15-15-15-8.285156 0-15 6.714843-15 15v9.371093h-9.394531c-8.28125 0-15 6.71875-15 15 0 8.285157 6.71875 15 15 15h9.394531v9.375c0 8.285157 6.714844 15 15 15 8.28125 0 15-6.714843 15-15v-9.375h9.390625c8.285156 0 15-6.714843 15-15 0-8.28125-6.714844-15-15-15zm0 0" fill="#fff"/><path d="m419.863281 67.195312h-48.785156c-8.28125 0-15 6.71875-15 15 0 8.285157 6.71875 15 15 15h48.785156c8.28125 0 15-6.714843 15-15 0-8.28125-6.71875-15-15-15zm0 0" fill="#c5feff"/><path d="m418.851562 410.261719v63.886719c0 20.871093-16.980468 37.851562-37.863281 37.851562h-249.976562c-20.882813 0-37.863281-16.980469-37.863281-37.851562v-63.886719c0-20.871094 16.980468-37.851563 37.863281-37.851563h249.976562c20.882813 0 37.863281 16.980469 37.863281 37.851563zm0 0" fill="#ffbb10"/><path d="m418.851562 410.261719v63.886719c0 20.871093-16.980468 37.851562-37.863281 37.851562h-124.988281v-139.589844h124.988281c20.882813 0 37.863281 16.980469 37.863281 37.851563zm0 0" fill="#ff7c10"/></svg>