<svg xmlns="http://www.w3.org/2000/svg" width="20.031" height="28.616" viewBox="0 0 20.031 28.616">
  <g id="fox" transform="translate(-0.18 1.312) rotate(-5)">
    <path id="Trazado_49" data-name="Trazado 49" d="M0,18.754l.92.063c1.733.119,5.516.764,6.152,1.992.141.272.283.578.434.9a11.591,11.591,0,0,0,2.028,3.3,5.739,5.739,0,0,0,2.472,1.531l.282-1.29.274,1.339,2.306-22.8c-1.142-.334-3.4.175-4.749.623h0l.031-.043L1.189,0,.86,1.009C.78,1.253-.97,6.8,2.953,9.8h0c-.064.089-.126.18-.188.27A15.676,15.676,0,0,0,.474,15.436a19.338,19.338,0,0,0-.4,2.546Z" transform="translate(0.181 0)" fill="#ff4f19"/>
    <path id="Trazado_54" data-name="Trazado 54" d="M.195,2.705l1.673.117L1.673.117,0,0Z" transform="translate(7.906 13.022) rotate(-44.887)" fill="#3a3a41"/>
    <path id="Trazado_50" data-name="Trazado 50" d="M0,3.424l.888.065c1.673.124,5.327.792,5.94,2.06.136.281.273.6.418.931A12.138,12.138,0,0,0,9.2,9.884c1.14,1.268,2.088-.6,3.9-.619l-1.053-.858c.848-.008-.761-.746-.413-.257-.235.159-.2.942.413.257.944-1.048-.3,1.137.2.017.15-.337-.121.064.019-.219.634-1.279-1.872.137-.2-.017l.177.237h0c-.063-.892-.23.792-.393-.034-.258.034.921-.229.582-.17-.276.048-.068.119-.386.187-.491.106.861-1.589.327-1.478-1.03.219.059,1.359.134,1.3l-.893.143C11.053,2.752,5.494.876,2.253.258,1.93.2,1.63.148,1.361.109,1,.057.7.022.46,0A21.249,21.249,0,0,0,.07,2.628Z" transform="translate(0 17.084)" fill="#ffd8a6"/>
    <path id="Trazado_52" data-name="Trazado 52" d="M.025.022,0,3.138a2.548,2.548,0,0,0,1.253.305h0c.45,0,.045,0,.746-.13L2.286.031Z" transform="translate(10.817 23.163)" fill="#57555c"/>
    <path id="Trazado_72" data-name="Trazado 72" d="M2.208,4.545H1.03V3.9H.713l.317.644L4.369,0,5.427.312Z" transform="translate(12.917 22.223) rotate(10)" fill="#e58842"/>
    <path id="Trazado_89" data-name="Trazado 89" d="M1.26,2.437A1.241,1.241,0,0,1,0,1.219,1.241,1.241,0,0,1,1.26,0,1.241,1.241,0,0,1,2.52,1.219,1.241,1.241,0,0,1,1.26,2.437Z" transform="translate(12.684 25.193) rotate(5)" fill="#f4b34a"/>
    <path id="Trazado_53" data-name="Trazado 53" d="M.046-.074,0,3.057a3.28,3.28,0,0,0,1.834.272L2.245-.117Z" transform="translate(10.817 23.245)" fill="#3a3a41"/>
  </g>
</svg>
