<svg xmlns="http://www.w3.org/2000/svg" width="47.694" height="68.134" viewBox="0 0 47.694 68.134">
  <g id="fox" transform="translate(-2.552 3.152) rotate(-5)">
    <path id="Trazado_49" data-name="Trazado 49" d="M1.937,44.79l2.191.15c4.125.284,13.134,1.818,14.647,4.742.335.648.674,1.375,1.032,2.147a27.6,27.6,0,0,0,4.829,7.848,13.665,13.665,0,0,0,5.887,3.645l.671-3.071.653,3.187L37.339,9.149c-2.72-.8-8.089.416-11.308,1.484h0l.074-.1L4.767.138l-.782,2.4c-.191.581-4.357,13.791,4.985,20.931,0,0,0,0,0,0-.152.212-.3.428-.447.643A37.323,37.323,0,0,0,3.066,36.891a46.043,46.043,0,0,0-.959,6.061Z" transform="translate(0.611 0.018)" fill="#ff4f19"/>
    <path id="Trazado_54" data-name="Trazado 54" d="M1.365,7.159l3.985.279L4.885,1,.9.718Z" transform="translate(19.797 31.288) rotate(-44.887)" fill="#3a3a41"/>
    <path id="Trazado_50" data-name="Trazado 50" d="M.354,8.2l2.115.156c3.984.3,12.683,1.885,14.142,4.9.323.669.65,1.42,1,2.217a28.9,28.9,0,0,0,4.659,8.1c2.715,3.02,4.972-1.435,9.277-1.473L29.037,20.06c2.019-.018-1.811-1.775-.983-.612-.561.379-.485,2.242.983.612,2.248-2.5-.723,2.708.468.041.358-.8-.288.152.046-.522,1.509-3.046-4.458.326-.468-.041l.422.563h0c-.151-2.123-.548,1.885-.936-.082-.615.081,2.192-.546,1.386-.405-.657.114-.162.283-.918.446-1.169.253,2.051-3.784.779-3.519-2.453.521.142,3.236.319,3.089l-2.127.34C26.672,6.593,13.435,2.128,5.718.656,4.949.51,4.236.394,3.594.3,2.738.177,2.009.1,1.449.042A50.592,50.592,0,0,0,.52,6.3Z" transform="translate(1.764 40.789)" fill="#ffd8a6"/>
    <path id="Trazado_52" data-name="Trazado 52" d="M.387.146.327,7.564a6.068,6.068,0,0,0,2.982.727h0c1.072-.01.107,0,1.777-.311L5.771.167Z" transform="translate(27.546 55.214)" fill="#57555c"/>
    <path id="Trazado_72" data-name="Trazado 72" d="M3.168,10.581H.364V9.048H-.391l.755,1.533L8.314-.241,10.834.5Z" transform="translate(34.888 53.667) rotate(10)" fill="#e58842"/>
    <path id="Trazado_89" data-name="Trazado 89" d="M3,5.8A2.956,2.956,0,0,1,0,2.9,2.956,2.956,0,0,1,3,0,2.956,2.956,0,0,1,6,2.9,2.956,2.956,0,0,1,3,5.8Z" transform="translate(32.318 60.139) rotate(5)" fill="#f4b34a"/>
    <path id="Trazado_53" data-name="Trazado 53" d="M.443.267.334,7.723A7.81,7.81,0,0,0,4.7,8.37L5.68.165Z" transform="translate(27.538 55.058)" fill="#3a3a41"/>
  </g>
</svg>
