<svg xmlns="http://www.w3.org/2000/svg" width="8.892" height="12.3" viewBox="0 0 8.892 12.3">
  <g id="fox" transform="translate(-0.097 0.582) rotate(-5)">
    <path id="Trazado_49" data-name="Trazado 49" d="M.018,8.039l.41.028c.771.054,2.457.335,2.742.863.063.117.127.248.194.387a4.985,4.985,0,0,0,.908,1.416,2.594,2.594,0,0,0,1.1.66l.124-.553.124.574.994-9.771A4.749,4.749,0,0,0,4.5,1.9h0l.014-.019L.52,0,.375.433c-.035.1-.806,2.48.945,3.772h0c-.028.038-.056.077-.083.116a6.545,6.545,0,0,0-1.012,2.3A7.982,7.982,0,0,0,.049,7.708Z" transform="translate(0.08 0)" fill="#ff4f19"/>
    <path id="Trazado_54" data-name="Trazado 54" d="M.107,1.188l.73.065L.73.065,0,0Z" transform="translate(3.528 5.593) rotate(-44.887)" fill="#3a3a41"/>
    <path id="Trazado_50" data-name="Trazado 50" d="M0,1.468.4,1.5c.745.056,2.372.347,2.647.892.061.121.122.256.188.4A5.2,5.2,0,0,0,4.11,4.251c.51.545.929-.255,1.734-.26l-.47-.37c.377,0-.34-.321-.184-.111-.1.068-.089.4.184.111.419-.448-.134.487.088.008.066-.144-.054.027.008-.094.28-.548-.833.056-.088-.008l.079.1h0c-.03-.382-.1.339-.175-.015-.115.014.41-.1.259-.072-.123.02-.03.051-.171.08-.218.045.381-.68.144-.633-.458.092.028.583.061.556l-.4.06C4.923,1.2,2.445.383,1,.114.858.087.724.065.6.048.444.025.308.01.2,0a8.769,8.769,0,0,0-.17,1.126Z" transform="translate(0.017 7.323)" fill="#ffd8a6"/>
    <path id="Trazado_52" data-name="Trazado 52" d="M.01,0,0,1.335a1.175,1.175,0,0,0,.558.133h0c.2,0,.02,0,.332-.055L1.016.007Z" transform="translate(4.841 9.955)" fill="#57555c"/>
    <path id="Trazado_72" data-name="Trazado 72" d="M.661,1.948l-.524,0V1.674H0l.14.276L1.63,0,2.1.129Z" transform="translate(6.084 9.597) rotate(10)" fill="#e58842"/>
    <path id="Trazado_89" data-name="Trazado 89" d="M.561,1.044A.543.543,0,0,1,0,.522.543.543,0,0,1,.561,0a.543.543,0,0,1,.561.522A.543.543,0,0,1,.561,1.044Z" transform="translate(5.673 10.818) rotate(5)" fill="#f4b34a"/>
    <path id="Trazado_53" data-name="Trazado 53" d="M.019.017,0,1.36a1.515,1.515,0,0,0,.817.119L1,0Z" transform="translate(4.84 9.931)" fill="#3a3a41"/>
  </g>
</svg>
