<svg xmlns="http://www.w3.org/2000/svg" width="53.055" height="75.793" viewBox="0 0 53.055 75.793">
  <g id="fox" transform="translate(-0.477 3.474) rotate(-5)">
    <path id="Trazado_49" data-name="Trazado 49" d="M0,49.671l2.437.167c4.589.316,14.611,2.023,16.294,5.276.373.72.75,1.53,1.148,2.388a30.7,30.7,0,0,0,5.372,8.73A15.2,15.2,0,0,0,31.8,70.285l.747-3.416.726,3.545,6.109-60.391c-3.026-.885-9,.462-12.579,1.651h0l.083-.115L3.148,0l-.87,2.673c-.212.646-4.847,15.342,5.545,23.284,0,0,0,0,0,0-.169.236-.334.476-.5.715A41.518,41.518,0,0,0,1.256,40.885,51.219,51.219,0,0,0,.19,47.627Z" transform="translate(0.478 0)" fill="#ff4f19"/>
    <path id="Trazado_54" data-name="Trazado 54" d="M.516,7.166l4.432.31L4.432.31,0,0Z" transform="translate(20.939 34.49) rotate(-44.887)" fill="#3a3a41"/>
    <path id="Trazado_50" data-name="Trazado 50" d="M0,9.07l2.353.173c4.431.329,14.108,2.1,15.732,5.456.36.744.723,1.58,1.108,2.466,1.278,2.945,2.726,6.283,5.183,9.015,3.02,3.36,5.531-1.6,10.32-1.639l-2.788-2.273c2.246-.02-2.015-1.975-1.093-.681-.624.421-.54,2.494,1.093.681,2.5-2.777-.8,3.012.52.046.4-.893-.321.169.051-.581,1.678-3.389-4.959.362-.52-.046l.47.627h0c-.168-2.362-.609,2.1-1.041-.091-.684.09,2.439-.607,1.542-.451-.731.127-.181.315-1.021.5-1.3.281,2.281-4.209.867-3.915-2.729.58.158,3.6.355,3.436l-2.366.379C29.276,7.288,14.551,2.321,5.967.683,5.111.521,4.318.391,3.6.288,2.652.15,1.841.059,1.218,0A56.279,56.279,0,0,0,.184,6.96Z" transform="translate(0 45.248)" fill="#ffd8a6"/>
    <path id="Trazado_52" data-name="Trazado 52" d="M.066,0,0,8.251a6.75,6.75,0,0,0,3.318.809h0c1.193-.011.119,0,1.977-.346L6.056.023Z" transform="translate(28.65 61.41)" fill="#57555c"/>
    <path id="Trazado_72" data-name="Trazado 72" d="M3.959,12.038H.84v-1.7H0l.84,1.7L9.684,0l2.8.827Z" transform="translate(36.071 59.187) rotate(10)" fill="#e58842"/>
    <path id="Trazado_89" data-name="Trazado 89" d="M3.338,6.455A3.288,3.288,0,0,1,0,3.227,3.288,3.288,0,0,1,3.338,0,3.288,3.288,0,0,1,6.675,3.227,3.288,3.288,0,0,1,3.338,6.455Z" transform="translate(33.594 66.725) rotate(5)" fill="#f4b34a"/>
    <path id="Trazado_53" data-name="Trazado 53" d="M.121.113,0,8.407c1.716.54,2.258.991,4.858.72L5.947,0Z" transform="translate(28.649 61.257)" fill="#3a3a41"/>
  </g>
</svg>
