<?xml version="1.0"?>
<svg xmlns="http://www.w3.org/2000/svg" xmlns:xlink="http://www.w3.org/1999/xlink" id="Gradient" viewBox="0 0 512 512" width="512" height="512"><defs><linearGradient id="linear-gradient" x1="256" y1="456" x2="256" y2="56" gradientUnits="userSpaceOnUse"><stop offset="0" stop-color="#12c2e9"/><stop offset="0.5" stop-color="#c471ed"/><stop offset="1" stop-color="#f64f59"/></linearGradient></defs><path d="M488,88H383.557c-2.1-18.707-11.528-32-23.557-32H152c-12.028,0-21.454,13.293-23.557,32H24a8,8,0,0,0-8,8V400a8,8,0,0,0,8,8H209.376A24.119,24.119,0,0,0,224,422.624V432a24.027,24.027,0,0,0,24,24h16a24.028,24.028,0,0,0,24-24v-9.376A24.119,24.119,0,0,0,302.624,408H488a8,8,0,0,0,8-8V96A8,8,0,0,0,488,88ZM368,96c0,15.488-6.009,24-8,24s-8-8.512-8-24,6.009-24,8-24S368,80.512,368,96ZM240,120V72h32v48Zm48-24V72h52.542A60.643,60.643,0,0,0,336,96a60.643,60.643,0,0,0,4.542,24H288ZM224,72v48H171.458A60.643,60.643,0,0,0,176,96a60.643,60.643,0,0,0-4.542-24H224Zm-72,0c1.991,0,8,8.512,8,24s-6.009,24-8,24-8-8.512-8-24S150.009,72,152,72ZM264,440H248a8.009,8.009,0,0,1-8-8v-8h32v8A8.009,8.009,0,0,1,264,440Zm16-32H232a8,8,0,0,1,0-16h48a8,8,0,0,1,0,16Zm-8-42.73V376H240V365.27a23.911,23.911,0,0,0-11.886-20.712,56,56,0,1,1,55.774,0A23.919,23.919,0,0,0,272,365.27ZM480,392H302.624A24.119,24.119,0,0,0,288,377.376V365.27a7.877,7.877,0,0,1,3.869-6.847A72.229,72.229,0,0,0,328,296a72,72,0,0,0-75.43-71.92,72,72,0,0,0-32.436,134.345A7.874,7.874,0,0,1,224,365.27v12.106A24.119,24.119,0,0,0,209.376,392H32V104h96.443c2.1,18.707,11.529,32,23.557,32H360c12.029,0,21.454-13.293,23.557-32H480ZM288,96a8,8,0,0,1,8-8h32a8,8,0,0,1,0,16H296A8,8,0,0,1,288,96ZM200,72a8,8,0,0,1,8,8v8h8a8,8,0,0,1,0,16h-8v8a8,8,0,0,1-16,0v-8h-8a8,8,0,0,1,0-16h8V80A8,8,0,0,1,200,72Z" style="fill:url(#linear-gradient)"/></svg>
