<svg xmlns="http://www.w3.org/2000/svg" width="587.541" height="498.396" viewBox="0 0 587.541 498.396">
  <g id="responsive-design" transform="translate(0 -32.071)">
    <g id="Grupo_8" data-name="Grupo 8" transform="translate(0 32.071)">
      <path id="Trazado_110" data-name="Trazado 110" d="M477.672,32.071H67.061c-21.388,0-38.788,16.874-38.788,37.615V351.831c0,18.344,14.018,34.242,32.673,37.141l6.986,5.408H470.774l13.014-5.408c18.654-2.9,32.673-18.8,32.673-37.141V69.686c0-20.741-17.4-37.615-38.789-37.615Z" transform="translate(4.171 -32.071)" fill="#365e7d"/>
      <path id="Trazado_111" data-name="Trazado 111" d="M65.274,351.832V69.687c0-20.741,17.4-37.615,38.788-37.615h-37c-21.388,0-38.788,16.874-38.788,37.615V351.832c0,18.344,14.018,34.242,32.673,37.141l6.986,5.408h37l-6.986-5.408C79.293,386.075,65.274,370.177,65.274,351.832Z" transform="translate(4.171 -32.071)" fill="#2b4d66"/>
      <path id="Trazado_112" data-name="Trazado 112" d="M472.414,91.772H65.677L58.638,98.9V342A6.857,6.857,0,0,0,65.6,348.75H470.175A6.857,6.857,0,0,0,477.134,342V98.9Z" transform="translate(8.652 -25.334)" fill="#e4f6ff"/>
      <path id="Trazado_113" data-name="Trazado 113" d="M103.875,342V98.9l7.039-7.126H65.677L58.638,98.9V342A6.857,6.857,0,0,0,65.6,348.75h45.237A6.858,6.858,0,0,1,103.875,342Z" transform="translate(8.652 -25.334)" fill="#d3effb"/>
      <path id="Trazado_114" data-name="Trazado 114" d="M103.875,62.209H65.6a6.856,6.856,0,0,0-6.959,6.749v33.275h45.237l2.976-3.078v-34.8Z" transform="translate(8.652 -28.67)" fill="#dd636e"/>
      <path id="Trazado_115" data-name="Trazado 115" d="M464.36,62.209H98.059v40.024H471.318V68.958a6.855,6.855,0,0,0-6.958-6.749Z" transform="translate(14.468 -28.67)" fill="#b1e4f9"/>
      <path id="Trazado_116" data-name="Trazado 116" d="M546.6,352.784H6.477A6.41,6.41,0,0,0,0,359.126V380.94c0,16.185,13.524,29.428,30.052,29.428H523.023c16.528,0,30.052-13.243,30.052-29.428V359.126a6.408,6.408,0,0,0-6.476-6.342Z" transform="translate(0 4.119)" fill="#407093"/>
      <path id="Trazado_117" data-name="Trazado 117" d="M67.29,380.939V359.125a6.411,6.411,0,0,1,6.477-6.342H6.477A6.41,6.41,0,0,0,0,359.125v21.814c0,16.185,13.524,29.428,30.052,29.428h67.29C80.813,410.367,67.29,397.124,67.29,380.939Z" transform="translate(0 4.119)" fill="#365e7d"/>
    </g>
    <path id="Trazado_118" data-name="Trazado 118" d="M531.079,451.631V227.7l6.158-5.651V196.887c0-12.919-10.8-23.392-24.121-23.392H365.069c-13.322,0-24.121,10.473-24.121,23.392v25.158l6.9,6.034V453.736l-6.9,4.14v33.241c0,12.919,10.8,23.392,24.121,23.392H513.116c13.322,0,24.121-10.473,24.121-23.392V457.876Z" transform="translate(50.304 15.958)" fill="#365e7d"/>
    <path id="Trazado_119" data-name="Trazado 119" d="M376.511,491.115V457.875l6.9-4.14V228.079l-6.9-6.034V196.887c0-12.919,10.8-23.392,24.121-23.392H365.069c-13.322,0-24.121,10.473-24.121,23.392v25.158l6.9,6.034V453.736l-6.9,4.14v33.241c0,12.919,10.8,23.392,24.121,23.392h35.563C387.311,514.507,376.511,504.035,376.511,491.115Z" transform="translate(50.304 15.958)" fill="#294b64"/>
    <path id="Trazado_123" data-name="Trazado 123" d="M340.948,246.581H537.237V449.628H340.948Z" transform="translate(50.304 24.206)" fill="#90d8f9"/>
    <path id="Trazado_124" data-name="Trazado 124" d="M340.948,246.581h35.561V449.628H340.948Z" transform="translate(50.304 24.206)" fill="#75cef9"/>
    <g id="Grupo_9" data-name="Grupo 9" transform="translate(471.107 491.743)">
      <path id="Trazado_125" data-name="Trazado 125" d="M438.249,462.329H419.4a8.6,8.6,0,1,1,0-17.2h18.847a8.6,8.6,0,1,1,0,17.2Z" transform="translate(-410.536 -445.133)" fill="#365e7d"/>
    </g>
    <path id="Trazado_127" data-name="Trazado 127" d="M340.948,217.122H377.1v34.414H340.948Z" transform="translate(50.304 20.881)" fill="#dd636e"/>
    <path id="Trazado_128" data-name="Trazado 128" d="M371.936,217.122v34.414H532.665V217.122Z" transform="translate(54.876 20.881)" fill="#b1e4f9"/>
  </g>
</svg>
