<svg height="512pt" viewBox="0 0 512 512" width="512pt" xmlns="http://www.w3.org/2000/svg"><path d="m331 30h90v30h-90zm0 0" fill="#00c8c8"/><path d="m181 30h-30v-30h-30v30h-30v30h30v30h30v-30h30zm0 0" fill="#f03800"/><path d="m30 150h196v-30h-226v332h76v-30h-46zm0 0" fill="#575f64"/><path d="m512 120v332h-63.699219c-6 17.398438-22.800781 30-42.300781 30-11.398438 0-21.898438-4.5-30-11.398438-15.902344 14.097657-44.097656 14.097657-60 0-8.101562 6.898438-18.601562 11.398438-30 11.398438s-22.199219-4.5-30-11.699219c-5.699219-4.800781-9.902344-11.101562-12.300781-18.300781h-47.699219v-30h75v15c0 8.398438 6.597656 15 15 15s15-6.601562 15-15v-15h30v15c0 8.398438 6.597656 15 15 15s15-6.601562 15-15v-15h30v15c0 8.398438 6.597656 15 15 15s15-6.601562 15-15v-15h61v-272h-196v-30zm0 0" fill="#575f64"/><path d="m512 120v332h-63.699219c-6 17.398438-22.800781 30-42.300781 30-11.398438 0-21.898438-4.5-30-11.398438-15.902344 14.097657-44.097656 14.097657-60 0-8.101562 6.898438-18.601562 11.398438-30 11.398438s-22.199219-4.5-30-11.699219v-48.300781h15v15c0 8.398438 6.597656 15 15 15s15-6.601562 15-15v-15h30v15c0 8.398438 6.597656 15 15 15s15-6.601562 15-15v-15h30v15c0 8.398438 6.597656 15 15 15s15-6.601562 15-15v-15h61v-272h-196v-30zm0 0" fill="#474f54"/><path d="m271 60h30v150h-30zm0 0" fill="#474f54"/><path d="m211 90h30v90h-30zm0 0" fill="#575f64"/><path d="m136 512c-41.351562 0-75-33.648438-75-75s33.648438-75 75-75 75 33.648438 75 75-33.648438 75-75 75zm0 0" fill="#9cdd05"/></svg>