<?xml version="1.0"?>
<svg xmlns="http://www.w3.org/2000/svg" id="Layer_1" data-name="Layer 1" viewBox="0 0 512 512" width="512" height="512"><title>ratings</title><polygon points="476.95 378.57 424.45 429.74 436.84 502 371.95 467.88 307.06 502 311.86 473.98 319.45 429.74 266.95 378.57 304.1 373.17 304.11 373.17 339.5 368.02 371.95 302.28 404.4 368.02 476.95 378.57" style="fill:#6fe3ff"/><path d="M319.45,429.74l-7.59,44.24H20v-51.6a50.832,50.832,0,0,1,1.23-11.53c.16-.68.33-1.36.51-2.03,4.78-17.38,18.39-30.95,35.54-36.51l75.56-24.5a96.331,96.331,0,0,0,91.64,0l75.55,24.5,4.07.86-37.15,5.4Z" style="fill:#e48e66"/><path d="M132.95,306.34a95.74,95.74,0,0,1-48.41-66.45l-5.32-18.31v-.15a25.854,25.854,0,0,1-20.61-31.6,19.426,19.426,0,0,1,17.31-14.8v.6a13.6,13.6,0,0,0,6.98,1.93A13.773,13.773,0,0,0,96.67,164.4l1.7-37.32a308.246,308.246,0,0,0,36.36-.93v.01c58.9,52.48,146.71,49.1,146.71,49.1v-.22a19.4,19.4,0,0,1,17.26,14.79,25.841,25.841,0,0,1-5.39,22.85,25.8,25.8,0,0,1-15.22,8.75v.15l-5.32,18.31a95.767,95.767,0,0,1-139.82,66.45Z" style="fill:#f7caa5"/><path d="M281.44,175.04v.22s-87.81,3.38-146.71-49.1v-.01a304.09,304.09,0,0,0,55.2-9.24s28.97,37.28,91.51,41.31Z" style="fill:#494f4f"/><path d="M75.92,175.03V122.76a102.76,102.76,0,1,1,205.52,0v35.46c-62.54-4.03-91.51-41.31-91.51-41.31a304.09,304.09,0,0,1-55.2,9.24,308.246,308.246,0,0,1-36.36.93l-1.7,37.32A13.773,13.773,0,0,1,82.9,177.56a13.6,13.6,0,0,1-6.98-1.93Z" style="fill:#5f6768"/><path d="M224.36,347.77l.12.04a96.331,96.331,0,0,1-91.64,0l.11-.04V306.34a95.8,95.8,0,0,0,91.41.01Z" style="fill:#edb288"/></svg>
