<svg xmlns="http://www.w3.org/2000/svg" width="42" height="42" viewBox="0 0 42 42">
  <g id="ZORRO" transform="translate(-281.167 -52)">
    <g id="Grupo_5" data-name="Grupo 5" transform="translate(72.815 -92)">
      <g id="machine-learning_3_" data-name="machine-learning (3)" transform="translate(208.167 144)">
        <g id="Trazado_108" data-name="Trazado 108" transform="translate(0.185 0)" fill="#313d56">
          <path d="M 21 41.5 C 18.2322998046875 41.5 15.54765033721924 40.95804977416992 13.0206298828125 39.88920974731445 C 10.57956027984619 38.85673141479492 8.387160301208496 37.3785285949707 6.504310131072998 35.49568939208984 C 4.621469974517822 33.61283874511719 3.143270015716553 31.42044067382813 2.110790014266968 28.9793701171875 C 1.041949987411499 26.45235061645508 0.5 23.7677001953125 0.5 21 C 0.5 18.2322998046875 1.041949987411499 15.54765033721924 2.110790014266968 13.0206298828125 C 3.143270015716553 10.57956027984619 4.621469974517822 8.387160301208496 6.504310131072998 6.504310131072998 C 8.387160301208496 4.621469974517822 10.57956027984619 3.143270015716553 13.0206298828125 2.110790014266968 C 15.54765033721924 1.041949987411499 18.2322998046875 0.5 21 0.5 C 23.7677001953125 0.5 26.45235061645508 1.041949987411499 28.9793701171875 2.110790014266968 C 31.42044067382813 3.143270015716553 33.61283874511719 4.621469974517822 35.49568939208984 6.504310131072998 C 37.3785285949707 8.387160301208496 38.85673141479492 10.57956027984619 39.88920974731445 13.0206298828125 C 40.95804977416992 15.54765033721924 41.5 18.2322998046875 41.5 21 C 41.5 23.7677001953125 40.95804977416992 26.45235061645508 39.88920974731445 28.9793701171875 C 38.85673141479492 31.42044067382813 37.3785285949707 33.61283874511719 35.49568939208984 35.49568939208984 C 33.61283874511719 37.3785285949707 31.42044067382813 38.85673141479492 28.9793701171875 39.88920974731445 C 26.45235061645508 40.95804977416992 23.7677001953125 41.5 21 41.5 Z" stroke="none"/>
          <path d="M 21 1 C 18.29957962036133 1 15.68045997619629 1.528659820556641 13.21540069580078 2.5712890625 C 10.83394050598145 3.578559875488281 8.694950103759766 5.020778656005859 6.857860565185547 6.857860565185547 C 5.020778656005859 8.694950103759766 3.578559875488281 10.83394050598145 2.5712890625 13.21540069580078 C 1.528659820556641 15.68045997619629 1 18.29957962036133 1 21 C 1 23.70042037963867 1.528659820556641 26.31954002380371 2.5712890625 28.78459930419922 C 3.578559875488281 31.16606140136719 5.020778656005859 33.30504989624023 6.857860565185547 35.14213943481445 C 8.694950103759766 36.97922134399414 10.83394050598145 38.42144012451172 13.21540069580078 39.4287109375 C 15.68045997619629 40.47134017944336 18.29957962036133 41 21 41 C 23.70042037963867 41 26.31954002380371 40.47134017944336 28.78459930419922 39.4287109375 C 31.16606140136719 38.42144012451172 33.30504989624023 36.97922134399414 35.14213943481445 35.14213943481445 C 36.97922134399414 33.30504989624023 38.42144012451172 31.16606140136719 39.4287109375 28.78459930419922 C 40.47134017944336 26.31954002380371 41 23.70042037963867 41 21 C 41 18.29957962036133 40.47134017944336 15.68045997619629 39.4287109375 13.21540069580078 C 38.42144012451172 10.83394050598145 36.97922134399414 8.694950103759766 35.14213943481445 6.857860565185547 C 33.30504989624023 5.020778656005859 31.16606140136719 3.578559875488281 28.78459930419922 2.5712890625 C 26.31954002380371 1.528659820556641 23.70042037963867 1 21 1 M 21 0 C 32.59798049926758 0 42 9.402019500732422 42 21 C 42 32.59798049926758 32.59798049926758 42 21 42 C 9.402019500732422 42 0 32.59798049926758 0 21 C 0 9.402019500732422 9.402019500732422 0 21 0 Z" stroke="none" fill="#fff"/>
        </g>
        <g id="Grupo_4" data-name="Grupo 4" transform="translate(20.461 10.246)">
          <path id="Trazado_56" data-name="Trazado 56" d="M14.234-1.3,8.085,2.406.1.816l.68,22.255,1.529-.709.8.709.586-.436,2.748-3.729,1.833-.522,2.856-.8,2.2.261L11.589,8.357,14.234,2.8Z" transform="translate(0.096 0.359)" fill="#fff"/>
          <path id="Trazado_64" data-name="Trazado 64" d="M6.876,2.2l-4-1.333H0V0H3.289L7.494,1.588Z" transform="translate(0.238 1.136)" fill="#e58842"/>
          <path id="Trazado_65" data-name="Trazado 65" d="M8.928,2.437H5.618L3.833.812H0V0H4.2L5.988,1.625h2.94Z" transform="translate(0 7.377)" fill="#e58842"/>
          <path id="Trazado_66" data-name="Trazado 66" d="M0,0H.84V6.093H0Z" transform="translate(2.627 11.032)" fill="#e58842"/>
          <path id="Trazado_67" data-name="Trazado 67" d="M.84,2.031H0V0H2.52V.812H.84Z" transform="translate(4.728 11.845)" fill="#e58842"/>
          <path id="Trazado_68" data-name="Trazado 68" d="M0,0H2.089V.751H0Z" transform="translate(0.118 4.127)" fill="#e58842"/>
          <path id="Trazado_69" data-name="Trazado 69" d="M0,0H6.307V.947H0Z" transform="translate(0.1 19.968)" fill="#e58842"/>
          <path id="Trazado_70" data-name="Trazado 70" d="M2.109,4.178,1.621,4.12.469,1.607,0,0H0L1.693,1.66Z" transform="matrix(0.695, -0.719, 0.719, 0.695, 9.538, 17.364)" fill="#e58842"/>
          <path id="Trazado_71" data-name="Trazado 71" d="M3.747,2.413h0L2.274,1.155,0,0H0L3.655,1.992l.4.416Z" transform="translate(5.13 20.888) rotate(103)" fill="#e58842"/>
          <path id="Trazado_73" data-name="Trazado 73" d="M1.68,2.843H0V2.031H.84V0h.84Z" transform="translate(3.887 15.5)" fill="#e58842"/>
          <path id="Trazado_74" data-name="Trazado 74" d="M0,0H.84V5.28H0Z" transform="translate(7.863 4.127)" fill="#e58842"/>
          <path id="Trazado_75" data-name="Trazado 75" d="M.594,5.161,0,4.587,2.817,1.863V0h.84V2.2Z" transform="translate(4.851 13.063)" fill="#e58842"/>
          <path id="Trazado_76" data-name="Trazado 76" d="M0,0H.84V2.437H0Z" transform="translate(2.627 5.346)" fill="#e58842"/>
          <path id="Trazado_77" data-name="Trazado 77" d="M.84,3.357H0V1L.963,0l.594.616L.84,1.359Z" transform="translate(10.188 12.649)" fill="#e58842"/>
          <path id="Trazado_78" data-name="Trazado 78" d="M.014.2,5.823,0l-.4,1.086L-.265.968Z" transform="matrix(0.94, -0.342, 0.342, 0.94, 5.92, 19.399)" fill="#e58842"/>
          <path id="Trazado_79" data-name="Trazado 79" d="M0,0H3.008V.633H0Z" transform="translate(0.039 13.063)" fill="#e58842"/>
          <path id="Trazado_80" data-name="Trazado 80" d="M1.968,1.625H0V.812H1.62L1.794.644V0h.84V.981Z" transform="translate(3.774 9.408)" fill="#e58842"/>
          <path id="Trazado_81" data-name="Trazado 81" d="M0,0H.84V2.33H0Z" transform="translate(4.728 17.937)" fill="#e58842"/>
          <path id="Trazado_82" data-name="Trazado 82" d="M0,0H2.045V.514H0Z" transform="translate(0.162 17.531)" fill="#e58842"/>
          <path id="Trazado_83" data-name="Trazado 83" d="M.158.012.782,0,.624,10.468,0,10.48Z" transform="translate(11.326 8.595) rotate(-11)" fill="#e58842"/>
          <path id="Trazado_84" data-name="Trazado 84" d="M.026,0,2.042.077V.889L0,.811Z" transform="translate(0.166 9.737)" fill="#e58842"/>
          <path id="Trazado_95" data-name="Trazado 95" d="M0,0,.626.027.817,6.548.191,6.521Z" transform="matrix(0.53, 0.848, -0.848, 0.53, 13.634, -1.043)" fill="#e58842"/>
          <path id="Trazado_96" data-name="Trazado 96" d="M.029.015.789,0,.761,4.738,0,4.753Z" transform="matrix(0.999, 0.052, -0.052, 0.999, 14.168, -0.285)" fill="#e58842"/>
          <path id="Trazado_98" data-name="Trazado 98" d="M0,0,.739.036.9,4.768.165,4.732Z" transform="translate(13.732 4.826) rotate(33)" fill="#e58842"/>
          <path id="Trazado_100" data-name="Trazado 100" d="M.1.039.979,0l-.1,2.346L0,2.386Z" transform="translate(10.174 10.517) rotate(-41)" fill="#e58842"/>
          <path id="Trazado_109" data-name="Trazado 109" d="M.054-.662.84,0V2.437H0Z" transform="matrix(-0.017, -1, 1, -0.017, 7.836, 16.006)" fill="#e58842"/>
        </g>
        <path id="Trazado_85" data-name="Trazado 85" d="M1.26,2.437A1.241,1.241,0,0,1,0,1.219,1.241,1.241,0,0,1,1.26,0,1.241,1.241,0,0,1,2.52,1.219,1.241,1.241,0,0,1,1.26,2.437Z" transform="translate(33.657 7.709)" fill="#f4b34a"/>
        <path id="Trazado_86" data-name="Trazado 86" d="M1.26,2.437A1.241,1.241,0,0,1,0,1.219,1.241,1.241,0,0,1,1.26,0,1.241,1.241,0,0,1,2.52,1.219,1.241,1.241,0,0,1,1.26,2.437Z" transform="translate(28.969 18.435)" fill="#f4b34a"/>
        <path id="Trazado_87" data-name="Trazado 87" d="M1.26,2.437A1.241,1.241,0,0,1,0,1.219,1.241,1.241,0,0,1,1.26,0,1.241,1.241,0,0,1,2.52,1.219,1.241,1.241,0,0,1,1.26,2.437Z" transform="translate(27.289 21.278)" fill="#f4b34a"/>
        <path id="Trazado_88" data-name="Trazado 88" d="M1.26,2.437A1.241,1.241,0,0,1,0,1.219,1.241,1.241,0,0,1,1.26,0,1.241,1.241,0,0,1,2.52,1.219,1.241,1.241,0,0,1,1.26,2.437Z" transform="translate(22.248 26.965)" fill="#f4b34a"/>
        <path id="Trazado_90" data-name="Trazado 90" d="M1.44,2.888a1.444,1.444,0,1,1,1.44-1.444A1.443,1.443,0,0,1,1.44,2.888Z" transform="translate(31.008 20.872)" fill="#f4b34a"/>
        <path id="Trazado_91" data-name="Trazado 91" d="M1.26,2.437A1.241,1.241,0,0,1,0,1.219,1.241,1.241,0,0,1,1.26,0,1.241,1.241,0,0,1,2.52,1.219,1.241,1.241,0,0,1,1.26,2.437Z" transform="translate(29.967 27.003)" fill="#f4b34a"/>
        <path id="Trazado_92" data-name="Trazado 92" d="M1.26,2.437A1.241,1.241,0,0,1,0,1.219,1.241,1.241,0,0,1,1.26,0,1.241,1.241,0,0,1,2.52,1.219,1.241,1.241,0,0,1,1.26,2.437Z" transform="translate(24.348 23.715)" fill="#f4b34a"/>
        <path id="Trazado_93" data-name="Trazado 93" d="M1.26,2.437A1.241,1.241,0,0,1,0,1.219,1.241,1.241,0,0,1,1.26,0,1.241,1.241,0,0,1,2.52,1.219,1.241,1.241,0,0,1,1.26,2.437Z" transform="translate(22.248 19.247)" fill="#f4b34a"/>
        <path id="Trazado_94" data-name="Trazado 94" d="M1.26,2.437A1.241,1.241,0,0,1,0,1.219,1.241,1.241,0,0,1,1.26,0,1.241,1.241,0,0,1,2.52,1.219,1.241,1.241,0,0,1,1.26,2.437Z" transform="translate(22.248 13.561)" fill="#f4b34a"/>
        <path id="Trazado_97" data-name="Trazado 97" d="M1.26,2.437A1.241,1.241,0,0,1,0,1.219,1.241,1.241,0,0,1,1.26,0,1.241,1.241,0,0,1,2.52,1.219,1.241,1.241,0,0,1,1.26,2.437Z" transform="translate(27.422 12.428)" fill="#f4b34a"/>
        <path id="Trazado_99" data-name="Trazado 99" d="M1.26,2.437A1.241,1.241,0,0,1,0,1.219,1.241,1.241,0,0,1,1.26,0,1.241,1.241,0,0,1,2.52,1.219,1.241,1.241,0,0,1,1.26,2.437Z" transform="translate(32.627 13.52)" fill="#f4b34a"/>
        <path id="Trazado_102" data-name="Trazado 102" d="M1.26,2.437A1.241,1.241,0,0,1,0,1.219,1.241,1.241,0,0,1,1.26,0,1.241,1.241,0,0,1,2.52,1.219,1.241,1.241,0,0,1,1.26,2.437Z" transform="translate(22.248 13.561)" fill="#f4b34a"/>
        <path id="Trazado_104" data-name="Trazado 104" d="M1.26,2.276A1.205,1.205,0,0,1,0,1.138C0,.51.565.321,1.26.321H2.626C2.626.948,1.955,2.276,1.26,2.276Z" transform="translate(20.095 11.05)" fill="#f4b34a"/>
        <path id="Trazado_105" data-name="Trazado 105" d="M1.26,2.437A1.241,1.241,0,0,1,0,1.219,1.241,1.241,0,0,1,1.26,0,1.241,1.241,0,0,1,2.52,1.219,1.241,1.241,0,0,1,1.26,2.437Z" transform="translate(19.734 22.211)" fill="#f4b34a"/>
        <path id="Trazado_106" data-name="Trazado 106" d="M1.26,2.437A1.241,1.241,0,0,1,0,1.219,1.241,1.241,0,0,1,1.26,0,1.241,1.241,0,0,1,2.52,1.219,1.241,1.241,0,0,1,1.26,2.437Z" transform="translate(26.184 29.208)" fill="#f4b34a"/>
      </g>
      <g id="fox" transform="translate(214.544 152.942) rotate(-5)">
        <path id="Trazado_49" data-name="Trazado 49" d="M0,18.754l.92.063c1.733.119,5.516.764,6.152,1.992.141.272.283.578.434.9a11.591,11.591,0,0,0,2.028,3.3,5.739,5.739,0,0,0,2.472,1.531l.282-1.29.274,1.339,2.306-22.8c-1.142-.334-3.4.175-4.749.623h0l.031-.043L1.189,0,.86,1.009C.78,1.253-.97,6.8,2.953,9.8h0c-.064.089-.126.18-.188.27A15.676,15.676,0,0,0,.474,15.436a19.338,19.338,0,0,0-.4,2.546Z" transform="translate(0.181 0)" fill="#ff4f19"/>
        <path id="Trazado_54" data-name="Trazado 54" d="M.195,2.705l1.673.117L1.673.117,0,0Z" transform="translate(7.906 13.022) rotate(-44.887)" fill="#3a3a41"/>
        <path id="Trazado_50" data-name="Trazado 50" d="M0,3.424l.888.065c1.673.124,5.327.792,5.94,2.06.136.281.273.6.418.931A12.138,12.138,0,0,0,9.2,9.884c1.14,1.268,2.088-.6,3.9-.619l-1.053-.858c.848-.008-.761-.746-.413-.257-.235.159-.2.942.413.257.944-1.048-.3,1.137.2.017.15-.337-.121.064.019-.219.634-1.279-1.872.137-.2-.017l.177.237h0c-.063-.892-.23.792-.393-.034-.258.034.921-.229.582-.17-.276.048-.068.119-.386.187-.491.106.861-1.589.327-1.478-1.03.219.059,1.359.134,1.3l-.893.143C11.053,2.752,5.494.876,2.253.258,1.93.2,1.63.148,1.361.109,1,.057.7.022.46,0A21.249,21.249,0,0,0,.07,2.628Z" transform="translate(0 17.084)" fill="#ffd8a6"/>
        <path id="Trazado_52" data-name="Trazado 52" d="M.025.022,0,3.138a2.548,2.548,0,0,0,1.253.305h0c.45,0,.045,0,.746-.13L2.286.031Z" transform="translate(10.817 23.163)" fill="#57555c"/>
        <path id="Trazado_72" data-name="Trazado 72" d="M2.208,4.545H1.03V3.9H.713l.317.644L4.369,0,5.427.312Z" transform="translate(12.917 22.223) rotate(10)" fill="#e58842"/>
        <path id="Trazado_89" data-name="Trazado 89" d="M1.26,2.437A1.241,1.241,0,0,1,0,1.219,1.241,1.241,0,0,1,1.26,0,1.241,1.241,0,0,1,2.52,1.219,1.241,1.241,0,0,1,1.26,2.437Z" transform="translate(12.684 25.193) rotate(5)" fill="#f4b34a"/>
        <path id="Trazado_53" data-name="Trazado 53" d="M.046-.074,0,3.057a3.28,3.28,0,0,0,1.834.272L2.245-.117Z" transform="translate(10.817 23.245)" fill="#3a3a41"/>
      </g>
    </g>
  </g>
</svg>
